<svg width="32" height="25" viewBox="0 0 32 25" fill="none" xmlns="http://www.w3.org/2000/svg">
<path fill-rule="evenodd" clip-rule="evenodd" d="M28.8416 9.91971L30.7805 12.4169C30.9219 12.5992 30.9988 12.8239 30.9988 13.0547V19.8141C30.9988 20.3884 30.5333 20.8539 29.9589 20.8539H26.9424C26.4677 22.6286 24.846 23.9392 22.9233 23.9392C21.0011 23.9392 19.3792 22.6286 18.9043 20.854H12.7295C12.2546 22.6286 10.6327 23.9392 8.71046 23.9392C6.41676 23.9392 4.55078 22.0732 4.55078 19.7795C4.55078 17.4859 6.41676 15.6199 8.71046 15.6199C10.6576 15.6199 12.2965 16.9646 12.7473 18.7742H18.8865C19.3373 16.9646 20.9762 15.6199 22.9233 15.6199C24.8705 15.6199 26.5094 16.9646 26.9602 18.7742H28.919V13.411L27.4045 11.4601H19.3171C18.7428 11.4601 18.2772 10.9946 18.2772 10.4202V3.14081H1.9852C1.41086 3.14081 0.945312 2.67526 0.945312 2.10092C0.945312 1.52658 1.41079 1.06104 1.9852 1.06104H19.3172C19.8915 1.06104 20.357 1.52652 20.357 2.10092V3.14087H24.7953C25.1884 3.14087 25.5478 3.36239 25.7246 3.71354L28.8443 9.91831L28.8416 9.91971ZM26.2453 9.38032L24.154 5.22071H20.357V9.38032H26.2453ZM25.0031 19.7648C24.9952 18.6245 24.0654 17.6997 22.9233 17.6997C21.7763 17.6997 20.8435 18.6325 20.8435 19.7795C20.8435 20.9266 21.7763 21.8594 22.9233 21.8594C24.05 21.8594 24.9701 20.9594 25.0023 19.8403C25.0021 19.8316 25.002 19.8228 25.002 19.8141C25.002 19.7975 25.0024 19.7811 25.0031 19.7648ZM8.71046 21.8594C7.56345 21.8594 6.63062 20.9266 6.63062 19.7795C6.63062 18.6325 7.56345 17.6997 8.71046 17.6997C9.85714 17.6997 10.7903 18.6325 10.7903 19.7795C10.7903 20.9266 9.85746 21.8594 8.71046 21.8594Z" fill="#2B2E34"/>
<path d="M30.7805 12.4169L30.899 12.325L30.899 12.3249L30.7805 12.4169ZM28.8416 9.91971L28.7742 9.78569L28.6112 9.86762L28.7231 10.0117L28.8416 9.91971ZM30.9988 19.8141L31.1488 19.8141V19.8141H30.9988ZM26.9424 20.8539V20.7039H26.8273L26.7975 20.8152L26.9424 20.8539ZM18.9043 20.854L19.0492 20.8152L19.0195 20.704H18.9043V20.854ZM12.7295 20.854V20.704H12.6143L12.5846 20.8152L12.7295 20.854ZM12.7473 18.7742L12.6018 18.8104L12.6301 18.9242H12.7473V18.7742ZM18.8865 18.7742V18.9242H19.0037L19.032 18.8104L18.8865 18.7742ZM26.9602 18.7742L26.8147 18.8104L26.843 18.9242H26.9602V18.7742ZM28.919 18.7742V18.9242H29.069V18.7742H28.919ZM28.919 13.411H29.069V13.3596L29.0375 13.319L28.919 13.411ZM27.4045 11.4601L27.523 11.3681L27.478 11.3101H27.4045V11.4601ZM18.2772 3.14081H18.4272V2.99081H18.2772V3.14081ZM20.357 3.14087H20.207V3.29087H20.357V3.14087ZM25.7246 3.71354L25.8586 3.64615L25.8586 3.64608L25.7246 3.71354ZM28.8443 9.91831L28.9117 10.0523L29.0457 9.98495L28.9784 9.85093L28.8443 9.91831ZM24.154 5.22071L24.288 5.15333L24.2464 5.07071H24.154V5.22071ZM26.2453 9.38032V9.53032H26.4886L26.3793 9.31294L26.2453 9.38032ZM20.357 5.22071V5.07071H20.207V5.22071H20.357ZM20.357 9.38032H20.207V9.53032H20.357V9.38032ZM25.0031 19.7648L25.1532 19.7718L25.1531 19.7637L25.0031 19.7648ZM25.0023 19.8403L25.1525 19.8446L25.1523 19.8366L25.0023 19.8403ZM30.899 12.3249L28.96 9.82771L28.7231 10.0117L30.662 12.5089L30.899 12.3249ZM31.1488 13.0547C31.1488 12.7906 31.0608 12.5336 30.899 12.325L30.6619 12.5088C30.783 12.6649 30.8488 12.8572 30.8488 13.0547H31.1488ZM31.1488 19.8141V13.0547H30.8488V19.8141H31.1488ZM29.9589 21.0039C30.6161 21.0039 31.1488 20.4712 31.1488 19.8141L30.8488 19.814C30.8488 20.3056 30.4504 20.7039 29.9589 20.7039V21.0039ZM26.9424 21.0039H29.9589V20.7039H26.9424V21.0039ZM26.7975 20.8152C26.3398 22.526 24.7762 23.7892 22.9233 23.7892V24.0892C24.9157 24.0892 26.5955 22.7312 27.0873 20.8927L26.7975 20.8152ZM22.9233 23.7892C21.0708 23.7892 19.507 22.526 19.0492 20.8152L18.7594 20.8928C19.2513 22.7312 20.9313 24.0892 22.9233 24.0892V23.7892ZM18.9043 20.704H12.7295V21.004H18.9043V20.704ZM12.5846 20.8152C12.1268 22.526 10.563 23.7892 8.71046 23.7892V24.0892C10.7025 24.0892 12.3825 22.7312 12.8744 20.8928L12.5846 20.8152ZM8.71046 23.7892C6.49961 23.7892 4.70078 21.9904 4.70078 19.7795H4.40078C4.40078 22.1561 6.33392 24.0892 8.71046 24.0892V23.7892ZM4.70078 19.7795C4.70078 17.5687 6.49961 15.7699 8.71046 15.7699V15.4699C6.33392 15.4699 4.40078 17.403 4.40078 19.7795H4.70078ZM8.71046 15.7699C10.587 15.7699 12.1672 17.066 12.6018 18.8104L12.8929 18.7379C12.4259 16.8632 10.7282 15.4699 8.71046 15.4699V15.7699ZM12.7473 18.9242H18.8865V18.6242H12.7473V18.9242ZM19.032 18.8104C19.4666 17.066 21.0468 15.7699 22.9233 15.7699V15.4699C20.9056 15.4699 19.2079 16.8632 18.7409 18.7379L19.032 18.8104ZM22.9233 15.7699C24.7999 15.7699 26.3801 17.066 26.8147 18.8104L27.1058 18.7379C26.6387 16.8632 24.9411 15.4699 22.9233 15.4699V15.7699ZM28.919 18.6242H26.9602V18.9242H28.919V18.6242ZM28.769 13.411V18.7742H29.069V13.411H28.769ZM27.2861 11.5521L28.8005 13.5029L29.0375 13.319L27.523 11.3681L27.2861 11.5521ZM19.3171 11.6101H27.4045V11.3101H19.3171V11.6101ZM18.1272 10.4202C18.1272 11.0775 18.6599 11.6101 19.3171 11.6101V11.3101C18.8256 11.3101 18.4272 10.9118 18.4272 10.4202H18.1272ZM18.1272 3.14081V10.4202H18.4272V3.14081H18.1272ZM1.9852 3.29081H18.2772V2.99081H1.9852V3.29081ZM0.795312 2.10092C0.795312 2.75811 1.32801 3.29081 1.9852 3.29081V2.99081C1.4937 2.99081 1.09531 2.59242 1.09531 2.10092H0.795312ZM1.9852 0.911035C1.32794 0.911035 0.795312 1.44374 0.795312 2.10092H1.09531C1.09531 1.60942 1.49364 1.21104 1.9852 1.21104V0.911035ZM19.3172 0.911035H1.9852V1.21104H19.3172V0.911035ZM20.507 2.10092C20.507 1.44367 19.9743 0.911035 19.3172 0.911035V1.21104C19.8087 1.21104 20.207 1.60936 20.207 2.10092H20.507ZM20.507 3.14087V2.10092H20.207V3.14087H20.507ZM24.7953 2.99087H20.357V3.29087H24.7953V2.99087ZM25.8586 3.64608C25.6563 3.24434 25.245 2.99087 24.7953 2.99087V3.29087C25.1317 3.29087 25.4393 3.48045 25.5906 3.78099L25.8586 3.64608ZM28.9784 9.85093L25.8586 3.64615L25.5906 3.78092L28.7103 9.98569L28.9784 9.85093ZM28.9089 10.0537L28.9117 10.0523L28.777 9.7843L28.7742 9.78569L28.9089 10.0537ZM24.0199 5.28809L26.1113 9.4477L26.3793 9.31294L24.288 5.15333L24.0199 5.28809ZM20.357 5.37071H24.154V5.07071H20.357V5.37071ZM20.507 9.38032V5.22071H20.207V9.38032H20.507ZM26.2453 9.23032H20.357V9.53032H26.2453V9.23032ZM25.1531 19.7637C25.1446 18.5411 24.1479 17.5497 22.9233 17.5497V17.8497C23.9829 17.8497 24.8458 18.708 24.8531 19.7658L25.1531 19.7637ZM22.9233 17.5497C21.6935 17.5497 20.6935 18.5497 20.6935 19.7795H20.9935C20.9935 18.7154 21.8592 17.8497 22.9233 17.8497V17.5497ZM20.6935 19.7795C20.6935 21.0094 21.6935 22.0094 22.9233 22.0094V21.7094C21.8592 21.7094 20.9935 20.8437 20.9935 19.7795H20.6935ZM22.9233 22.0094C24.1315 22.0094 25.1177 21.0446 25.1523 19.8446L24.8524 19.836C24.8225 20.8742 23.9686 21.7094 22.9233 21.7094V22.0094ZM24.852 19.8141C24.852 19.8241 24.8521 19.834 24.8524 19.844L25.1523 19.8366C25.1521 19.8291 25.152 19.8216 25.152 19.8141H24.852ZM24.8533 19.7578C24.8524 19.7764 24.852 19.7952 24.852 19.8141H25.152C25.152 19.7999 25.1523 19.7858 25.153 19.7718L24.8533 19.7578ZM6.48062 19.7795C6.48062 21.0094 7.48061 22.0094 8.71046 22.0094V21.7094C7.64629 21.7094 6.78062 20.8437 6.78062 19.7795H6.48062ZM8.71046 17.5497C7.48061 17.5497 6.48062 18.5497 6.48062 19.7795H6.78062C6.78062 18.7154 7.64629 17.8497 8.71046 17.8497V17.5497ZM10.9403 19.7795C10.9403 18.5497 9.93997 17.5497 8.71046 17.5497V17.8497C9.77431 17.8497 10.6403 18.7154 10.6403 19.7795H10.9403ZM8.71046 22.0094C9.9403 22.0094 10.9403 21.0095 10.9403 19.7795H10.6403C10.6403 20.8438 9.77462 21.7094 8.71046 21.7094V22.0094Z" fill="white"/>
</svg>
